<?xml version="1.0" encoding="UTF-8" standalone="no"?>
<!DOCTYPE svg PUBLIC "-//W3C//DTD SVG 1.1//EN" "http://www.w3.org/Graphics/SVG/1.1/DTD/svg11.dtd">
<svg width="100%" height="100%" viewBox="0 0 2481 3508" version="1.1" xmlns="http://www.w3.org/2000/svg" xmlns:xlink="http://www.w3.org/1999/xlink" xml:space="preserve" xmlns:serif="http://www.serif.com/" style="fill-rule:evenodd;clip-rule:evenodd;stroke-linejoin:round;stroke-miterlimit:2;">
    <g transform="matrix(2.9469,0,0,3.03923,1314.31,1753.94)">
        <g id="noun-baby-bottle-868661-1A1A1A.svg" transform="matrix(1,0,0,1,-600,-600)">
            <g>
                <path d="M750.36,443.38C756.575,435.833 760.465,426.318 760.465,415.806L760.465,346.65C760.465,324.283 743.496,306.005 721.789,303.509L721.789,297.028C721.789,252.7 676.922,229.325 647.223,213.868C639.301,209.74 628.661,204.197 625.465,201.126C624.914,195.341 624.625,190.243 624.602,186.306C624.567,180.295 626.379,175.747 628.887,169.435C632.461,160.494 636.903,149.361 636.903,131.177C636.903,95.861 608.165,67.134 572.848,67.134C536.188,67.134 508.793,100.95 508.793,131.177C508.793,146.634 512.703,157.529 515.859,166.29C518.234,172.927 520.121,178.157 520.121,184.255C520.121,189.15 519.75,194.958 519.027,201.15C516.003,204.389 504.832,210.404 496.55,214.877C467.616,230.467 423.89,254.033 423.89,297.03L423.89,303.51C402.183,306.006 385.214,324.283 385.214,346.651L385.214,415.807C385.214,426.319 389.101,435.846 395.319,443.381C370.815,455.658 353.921,480.94 353.921,510.151L353.921,1036.86C353.921,1078.06 387.437,1111.56 428.632,1111.56L717.062,1111.56C758.269,1111.56 791.785,1078.06 791.785,1036.86L791.781,510.161C791.769,480.942 774.871,455.657 750.355,443.38L750.36,443.38Z" style="fill:none;fill-rule:nonzero;stroke:black;stroke-width:1px;"/>
            </g>
        </g>
        <g id="noun-baby-bottle-868661-1A1A1A.svg1" serif:id="noun-baby-bottle-868661-1A1A1A.svg">
        </g>
    </g>
</svg>
