  0
SECTION
  2
HEADER
  9
$ACADVER
  1
AC1009
  9
$FILLMODE
 70
 0
  9
$SPLFRAME
 70
 1
  9
$EXTMIN
 10
0
 20
0
 30
0.0
  9
$EXTMAX
 10
41.6667
 20
41.6667
 30
0.0
  0
ENDSEC
  0
SECTION
  2
TABLES
  0
TABLE
  2
LAYER
 70
1
  0
LAYER
  2
0
 70
     0
 62
     7
  6
CONTINUOUS
  0
ENDTAB
  0
ENDSEC
  0
SECTION
  2
ENTITIES
  0
POLYLINE
  8
0
 62
     0
 66
     1
 10
0
 20
0
 30
0.0
 70
     1
 40
2.21018
 41
2.21018
  0
VERTEX
  8
0
 10
18.3063
 20
23.2299
 30
0.0
 40
0.0306969
 41
0.0306969
  0
VERTEX
  8
0
 10
18.3421
 20
23.2746
 30
0.0
 40
0.0306969
 41
0.0306969
  0
VERTEX
  8
0
 10
18.4353
 20
23.4203
 30
0.0
 40
0.0306969
 41
0.0306969
  0
VERTEX
  8
0
 10
18.5329
 20
23.6311
 30
0.0
 40
0.0306969
 41
0.0306969
  0
VERTEX
  8
0
 10
18.5949
 20
23.8596
 30
0.0
 40
0.0306969
 41
0.0306969
  0
VERTEX
  8
0
 10
18.6165
 20
24.0421
 30
0.0
 40
0.0306969
 41
0.0306969
  0
VERTEX
  8
0
 10
18.6165
 20
24.1028
 30
0.0
 40
0.0306969
 41
0.0306969
  0
VERTEX
  8
0
 10
18.6165
 20
26.2922
 30
0.0
 40
0.0306969
 41
0.0306969
  0
VERTEX
  8
0
 10
18.6165
 20
26.3569
 30
0.0
 40
0.0306969
 41
0.0306969
  0
VERTEX
  8
0
 10
18.5928
 20
26.551
 30
0.0
 40
0.0306969
 41
0.0306969
  0
VERTEX
  8
0
 10
18.5246
 20
26.7932
 30
0.0
 40
0.0306969
 41
0.0306969
  0
VERTEX
  8
0
 10
18.4165
 20
27.0147
 30
0.0
 40
0.0306969
 41
0.0306969
  0
VERTEX
  8
0
 10
18.2728
 20
27.211
 30
0.0
 40
0.0306969
 41
0.0306969
  0
VERTEX
  8
0
 10
18.0978
 20
27.3778
 30
0.0
 40
0.0306969
 41
0.0306969
  0
VERTEX
  8
0
 10
17.8958
 20
27.5108
 30
0.0
 40
0.0306969
 41
0.0306969
  0
VERTEX
  8
0
 10
17.6715
 20
27.6057
 30
0.0
 40
0.0306969
 41
0.0306969
  0
VERTEX
  8
0
 10
17.4906
 20
27.6508
 30
0.0
 40
0.0306969
 41
0.0306969
  0
VERTEX
  8
0
 10
17.4293
 20
27.6581
 30
0.0
 40
0.0306969
 41
0.0306969
  0
VERTEX
  8
0
 10
17.4293
 20
27.8631
 30
0.0
 40
0.0306969
 41
0.0306969
  0
VERTEX
  8
0
 10
17.4293
 20
27.9271
 30
0.0
 40
0.0306969
 41
0.0306969
  0
VERTEX
  8
0
 10
17.4135
 20
28.1186
 30
0.0
 40
0.0306969
 41
0.0306969
  0
VERTEX
  8
0
 10
17.3683
 20
28.3592
 30
0.0
 40
0.0306969
 41
0.0306969
  0
VERTEX
  8
0
 10
17.2961
 20
28.5853
 30
0.0
 40
0.0306969
 41
0.0306969
  0
VERTEX
  8
0
 10
17.1997
 20
28.7978
 30
0.0
 40
0.0306969
 41
0.0306969
  0
VERTEX
  8
0
 10
17.0819
 20
28.9971
 30
0.0
 40
0.0306969
 41
0.0306969
  0
VERTEX
  8
0
 10
16.9454
 20
29.1839
 30
0.0
 40
0.0306969
 41
0.0306969
  0
VERTEX
  8
0
 10
16.7926
 20
29.3588
 30
0.0
 40
0.0306969
 41
0.0306969
  0
VERTEX
  8
0
 10
16.6267
 20
29.5224
 30
0.0
 40
0.0306969
 41
0.0306969
  0
VERTEX
  8
0
 10
16.4499
 20
29.6751
 30
0.0
 40
0.0306969
 41
0.0306969
  0
VERTEX
  8
0
 10
16.2651
 20
29.8179
 30
0.0
 40
0.0306969
 41
0.0306969
  0
VERTEX
  8
0
 10
16.0751
 20
29.9511
 30
0.0
 40
0.0306969
 41
0.0306969
  0
VERTEX
  8
0
 10
15.8825
 20
30.0754
 30
0.0
 40
0.0306969
 41
0.0306969
  0
VERTEX
  8
0
 10
15.6901
 20
30.1915
 30
0.0
 40
0.0306969
 41
0.0306969
  0
VERTEX
  8
0
 10
15.5004
 20
30.2999
 30
0.0
 40
0.0306969
 41
0.0306969
  0
VERTEX
  8
0
 10
15.3163
 20
30.4011
 30
0.0
 40
0.0306969
 41
0.0306969
  0
VERTEX
  8
0
 10
15.1843
 20
30.4722
 30
0.0
 40
0.0306969
 41
0.0306969
  0
VERTEX
  8
0
 10
15.1404
 20
30.4958
 30
0.0
 40
0.0306969
 41
0.0306969
  0
VERTEX
  8
0
 10
15.1167
 20
30.5086
 30
0.0
 40
0.0306969
 41
0.0306969
  0
VERTEX
  8
0
 10
15.0458
 20
30.5468
 30
0.0
 40
0.0306969
 41
0.0306969
  0
VERTEX
  8
0
 10
14.9472
 20
30.6004
 30
0.0
 40
0.0306969
 41
0.0306969
  0
VERTEX
  8
0
 10
14.8479
 20
30.6553
 30
0.0
 40
0.0306969
 41
0.0306969
  0
VERTEX
  8
0
 10
14.7519
 20
30.7101
 30
0.0
 40
0.0306969
 41
0.0306969
  0
VERTEX
  8
0
 10
14.6626
 20
30.7633
 30
0.0
 40
0.0306969
 41
0.0306969
  0
VERTEX
  8
0
 10
14.5839
 20
30.8136
 30
0.0
 40
0.0306969
 41
0.0306969
  0
VERTEX
  8
0
 10
14.5193
 20
30.8594
 30
0.0
 40
0.0306969
 41
0.0306969
  0
VERTEX
  8
0
 10
14.4833
 20
30.8885
 30
0.0
 40
0.0306969
 41
0.0306969
  0
VERTEX
  8
0
 10
14.4725
 20
30.8993
 30
0.0
 40
0.0306969
 41
0.0306969
  0
VERTEX
  8
0
 10
14.4682
 20
30.945
 30
0.0
 40
0.0306969
 41
0.0306969
  0
VERTEX
  8
0
 10
14.4531
 20
31.1558
 30
0.0
 40
0.0306969
 41
0.0306969
  0
VERTEX
  8
0
 10
14.4461
 20
31.3374
 30
0.0
 40
0.0306969
 41
0.0306969
  0
VERTEX
  8
0
 10
14.446
 20
31.3685
 30
0.0
 40
0.0306969
 41
0.0306969
  0
VERTEX
  8
0
 10
14.4457
 20
31.4024
 30
0.0
 40
0.0306969
 41
0.0306969
  0
VERTEX
  8
0
 10
14.4551
 20
31.5042
 30
0.0
 40
0.0306969
 41
0.0306969
  0
VERTEX
  8
0
 10
14.4824
 20
31.6319
 30
0.0
 40
0.0306969
 41
0.0306969
  0
VERTEX
  8
0
 10
14.5243
 20
31.7617
 30
0.0
 40
0.0306969
 41
0.0306969
  0
VERTEX
  8
0
 10
14.5639
 20
31.8675
 30
0.0
 40
0.0306969
 41
0.0306969
  0
VERTEX
  8
0
 10
14.5775
 20
31.9025
 30
0.0
 40
0.0306969
 41
0.0306969
  0
VERTEX
  8
0
 10
14.5881
 20
31.93
 30
0.0
 40
0.0306969
 41
0.0306969
  0
VERTEX
  8
0
 10
14.6196
 20
32.0122
 30
0.0
 40
0.0306969
 41
0.0306969
  0
VERTEX
  8
0
 10
14.6622
 20
32.1303
 30
0.0
 40
0.0306969
 41
0.0306969
  0
VERTEX
  8
0
 10
14.7035
 20
32.2585
 30
0.0
 40
0.0306969
 41
0.0306969
  0
VERTEX
  8
0
 10
14.7415
 20
32.3985
 30
0.0
 40
0.0306969
 41
0.0306969
  0
VERTEX
  8
0
 10
14.7746
 20
32.5522
 30
0.0
 40
0.0306969
 41
0.0306969
  0
VERTEX
  8
0
 10
14.8004
 20
32.7215
 30
0.0
 40
0.0306969
 41
0.0306969
  0
VERTEX
  8
0
 10
14.8175
 20
32.9081
 30
0.0
 40
0.0306969
 41
0.0306969
  0
VERTEX
  8
0
 10
14.8235
 20
33.0624
 30
0.0
 40
0.0306969
 41
0.0306969
  0
VERTEX
  8
0
 10
14.8235
 20
33.1137
 30
0.0
 40
0.0306969
 41
0.0306969
  0
VERTEX
  8
0
 10
14.8235
 20
33.1656
 30
0.0
 40
0.0306969
 41
0.0306969
  0
VERTEX
  8
0
 10
14.8133
 20
33.3208
 30
0.0
 40
0.0306969
 41
0.0306969
  0
VERTEX
  8
0
 10
14.7835
 20
33.5219
 30
0.0
 40
0.0306969
 41
0.0306969
  0
VERTEX
  8
0
 10
14.7349
 20
33.7161
 30
0.0
 40
0.0306969
 41
0.0306969
  0
VERTEX
  8
0
 10
14.6688
 20
33.9022
 30
0.0
 40
0.0306969
 41
0.0306969
  0
VERTEX
  8
0
 10
14.5858
 20
34.0794
 30
0.0
 40
0.0306969
 41
0.0306969
  0
VERTEX
  8
0
 10
14.4872
 20
34.2467
 30
0.0
 40
0.0306969
 41
0.0306969
  0
VERTEX
  8
0
 10
14.3739
 20
34.4028
 30
0.0
 40
0.0306969
 41
0.0306969
  0
VERTEX
  8
0
 10
14.2469
 20
34.5468
 30
0.0
 40
0.0306969
 41
0.0306969
  0
VERTEX
  8
0
 10
14.1072
 20
34.6778
 30
0.0
 40
0.0306969
 41
0.0306969
  0
VERTEX
  8
0
 10
13.9558
 20
34.7946
 30
0.0
 40
0.0306969
 41
0.0306969
  0
VERTEX
  8
0
 10
13.7937
 20
34.8963
 30
0.0
 40
0.0306969
 41
0.0306969
  0
VERTEX
  8
0
 10
13.6218
 20
34.9817
 30
0.0
 40
0.0306969
 41
0.0306969
  0
VERTEX
  8
0
 10
13.4413
 20
35.05
 30
0.0
 40
0.0306969
 41
0.0306969
  0
VERTEX
  8
0
 10
13.253
 20
35.1
 30
0.0
 40
0.0306969
 41
0.0306969
  0
VERTEX
  8
0
 10
13.0579
 20
35.1308
 30
0.0
 40
0.0306969
 41
0.0306969
  0
VERTEX
  8
0
 10
12.9074
 20
35.1412
 30
0.0
 40
0.0306969
 41
0.0306969
  0
VERTEX
  8
0
 10
12.8573
 20
35.1412
 30
0.0
 40
0.0306969
 41
0.0306969
  0
VERTEX
  8
0
 10
12.8053
 20
35.1412
 30
0.0
 40
0.0306969
 41
0.0306969
  0
VERTEX
  8
0
 10
12.6497
 20
35.129
 30
0.0
 40
0.0306969
 41
0.0306969
  0
VERTEX
  8
0
 10
12.4497
 20
35.0935
 30
0.0
 40
0.0306969
 41
0.0306969
  0
VERTEX
  8
0
 10
12.2579
 20
35.0363
 30
0.0
 40
0.0306969
 41
0.0306969
  0
VERTEX
  8
0
 10
12.0753
 20
34.959
 30
0.0
 40
0.0306969
 41
0.0306969
  0
VERTEX
  8
0
 10
11.9025
 20
34.8637
 30
0.0
 40
0.0306969
 41
0.0306969
  0
VERTEX
  8
0
 10
11.7405
 20
34.7521
 30
0.0
 40
0.0306969
 41
0.0306969
  0
VERTEX
  8
0
 10
11.5901
 20
34.6257
 30
0.0
 40
0.0306969
 41
0.0306969
  0
VERTEX
  8
0
 10
11.452
 20
34.4864
 30
0.0
 40
0.0306969
 41
0.0306969
  0
VERTEX
  8
0
 10
11.3272
 20
34.3358
 30
0.0
 40
0.0306969
 41
0.0306969
  0
VERTEX
  8
0
 10
11.2164
 20
34.1758
 30
0.0
 40
0.0306969
 41
0.0306969
  0
VERTEX
  8
0
 10
11.1203
 20
34.0081
 30
0.0
 40
0.0306969
 41
0.0306969
  0
VERTEX
  8
0
 10
11.0399
 20
33.8343
 30
0.0
 40
0.0306969
 41
0.0306969
  0
VERTEX
  8
0
 10
10.976
 20
33.6563
 30
0.0
 40
0.0306969
 41
0.0306969
  0
VERTEX
  8
0
 10
10.9293
 20
33.4757
 30
0.0
 40
0.0306969
 41
0.0306969
  0
VERTEX
  8
0
 10
10.9007
 20
33.2943
 30
0.0
 40
0.0306969
 41
0.0306969
  0
VERTEX
  8
0
 10
10.8909
 20
33.1589
 30
0.0
 40
0.0306969
 41
0.0306969
  0
VERTEX
  8
0
 10
10.8909
 20
33.1137
 30
0.0
 40
0.0306969
 41
0.0306969
  0
VERTEX
  8
0
 10
10.8909
 20
33.0285
 30
0.0
 40
0.0306969
 41
0.0306969
  0
VERTEX
  8
0
 10
10.9112
 20
32.7726
 30
0.0
 40
0.0306969
 41
0.0306969
  0
VERTEX
  8
0
 10
10.9631
 20
32.4785
 30
0.0
 40
0.0306969
 41
0.0306969
  0
VERTEX
  8
0
 10
11.033
 20
32.224
 30
0.0
 40
0.0306969
 41
0.0306969
  0
VERTEX
  8
0
 10
11.0885
 20
32.0574
 30
0.0
 40
0.0306969
 41
0.0306969
  0
VERTEX
  8
0
 10
11.1079
 20
32.0021
 30
0.0
 40
0.0306969
 41
0.0306969
  0
VERTEX
  8
0
 10
11.1208
 20
31.9646
 30
0.0
 40
0.0306969
 41
0.0306969
  0
VERTEX
  8
0
 10
11.159
 20
31.8518
 30
0.0
 40
0.0306969
 41
0.0306969
  0
VERTEX
  8
0
 10
11.2006
 20
31.7114
 30
0.0
 40
0.0306969
 41
0.0306969
  0
VERTEX
  8
0
 10
11.2285
 20
31.5742
 30
0.0
 40
0.0306969
 41
0.0306969
  0
VERTEX
  8
0
 10
11.2387
 20
31.4686
 30
0.0
 40
0.0306969
 41
0.0306969
  0
VERTEX
  8
0
 10
11.2387
 20
31.4333
 30
0.0
 40
0.0306969
 41
0.0306969
  0
VERTEX
  8
0
 10
11.2387
 20
31.3704
 30
0.0
 40
0.0306969
 41
0.0306969
  0
VERTEX
  8
0
 10
11.2302
 20
31.1814
 30
0.0
 40
0.0306969
 41
0.0306969
  0
VERTEX
  8
0
 10
11.2107
 20
30.9475
 30
0.0
 40
0.0306969
 41
0.0306969
  0
VERTEX
  8
0
 10
11.2051
 20
30.8985
 30
0.0
 40
0.0306969
 41
0.0306969
  0
VERTEX
  8
0
 10
11.1947
 20
30.8869
 30
0.0
 40
0.0306969
 41
0.0306969
  0
VERTEX
  8
0
 10
11.1592
 20
30.8562
 30
0.0
 40
0.0306969
 41
0.0306969
  0
VERTEX
  8
0
 10
11.0939
 20
30.8074
 30
0.0
 40
0.0306969
 41
0.0306969
  0
VERTEX
  8
0
 10
11.013
 20
30.7533
 30
0.0
 40
0.0306969
 41
0.0306969
  0
VERTEX
  8
0
 10
10.9206
 20
30.6958
 30
0.0
 40
0.0306969
 41
0.0306969
  0
VERTEX
  8
0
 10
10.8207
 20
30.6367
 30
0.0
 40
0.0306969
 41
0.0306969
  0
VERTEX
  8
0
 10
10.7171
 20
30.5771
 30
0.0
 40
0.0306969
 41
0.0306969
  0
VERTEX
  8
0
 10
10.6139
 20
30.5192
 30
0.0
 40
0.0306969
 41
0.0306969
  0
VERTEX
  8
0
 10
10.5398
 20
30.4776
 30
0.0
 40
0.0306969
 41
0.0306969
  0
VERTEX
  8
0
 10
10.5151
 20
30.4639
 30
0.0
 40
0.0306969
 41
0.0306969
  0
VERTEX
  8
0
 10
10.4722
 20
30.4401
 30
0.0
 40
0.0306969
 41
0.0306969
  0
VERTEX
  8
0
 10
10.3437
 20
30.3683
 30
0.0
 40
0.0306969
 41
0.0306969
  0
VERTEX
  8
0
 10
10.1643
 20
30.2664
 30
0.0
 40
0.0306969
 41
0.0306969
  0
VERTEX
  8
0
 10
9.97944
 20
30.1572
 30
0.0
 40
0.0306969
 41
0.0306969
  0
VERTEX
  8
0
 10
9.79189
 20
30.0408
 30
0.0
 40
0.0306969
 41
0.0306969
  0
VERTEX
  8
0
 10
9.60422
 20
29.9161
 30
0.0
 40
0.0306969
 41
0.0306969
  0
VERTEX
  8
0
 10
9.41906
 20
29.7831
 30
0.0
 40
0.0306969
 41
0.0306969
  0
VERTEX
  8
0
 10
9.23904
 20
29.6408
 30
0.0
 40
0.0306969
 41
0.0306969
  0
VERTEX
  8
0
 10
9.06685
 20
29.4889
 30
0.0
 40
0.0306969
 41
0.0306969
  0
VERTEX
  8
0
 10
8.905
 20
29.3268
 30
0.0
 40
0.0306969
 41
0.0306969
  0
VERTEX
  8
0
 10
8.75624
 20
29.154
 30
0.0
 40
0.0306969
 41
0.0306969
  0
VERTEX
  8
0
 10
8.6231
 20
28.9701
 30
0.0
 40
0.0306969
 41
0.0306969
  0
VERTEX
  8
0
 10
8.50831
 20
28.7743
 30
0.0
 40
0.0306969
 41
0.0306969
  0
VERTEX
  8
0
 10
8.41444
 20
28.5663
 30
0.0
 40
0.0306969
 41
0.0306969
  0
VERTEX
  8
0
 10
8.34412
 20
28.3454
 30
0.0
 40
0.0306969
 41
0.0306969
  0
VERTEX
  8
0
 10
8.29997
 20
28.1113
 30
0.0
 40
0.0306969
 41
0.0306969
  0
VERTEX
  8
0
 10
8.28472
 20
27.9251
 30
0.0
 40
0.0306969
 41
0.0306969
  0
VERTEX
  8
0
 10
8.28472
 20
27.8631
 30
0.0
 40
0.0306969
 41
0.0306969
  0
VERTEX
  8
0
 10
8.28472
 20
27.6579
 30
0.0
 40
0.0306969
 41
0.0306969
  0
VERTEX
  8
0
 10
8.22342
 20
27.6507
 30
0.0
 40
0.0306969
 41
0.0306969
  0
VERTEX
  8
0
 10
8.04238
 20
27.6057
 30
0.0
 40
0.0306969
 41
0.0306969
  0
VERTEX
  8
0
 10
7.81808
 20
27.5108
 30
0.0
 40
0.0306969
 41
0.0306969
  0
VERTEX
  8
0
 10
7.61621
 20
27.3778
 30
0.0
 40
0.0306969
 41
0.0306969
  0
VERTEX
  8
0
 10
7.44119
 20
27.211
 30
0.0
 40
0.0306969
 41
0.0306969
  0
VERTEX
  8
0
 10
7.29742
 20
27.0146
 30
0.0
 40
0.0306969
 41
0.0306969
  0
VERTEX
  8
0
 10
7.18929
 20
26.7932
 30
0.0
 40
0.0306969
 41
0.0306969
  0
VERTEX
  8
0
 10
7.12115
 20
26.551
 30
0.0
 40
0.0306969
 41
0.0306969
  0
VERTEX
  8
0
 10
7.0975
 20
26.3569
 30
0.0
 40
0.0306969
 41
0.0306969
  0
VERTEX
  8
0
 10
7.0975
 20
26.2922
 30
0.0
 40
0.0306969
 41
0.0306969
  0
VERTEX
  8
0
 10
7.0975
 20
24.1028
 30
0.0
 40
0.0306969
 41
0.0306969
  0
VERTEX
  8
0
 10
7.0975
 20
24.0419
 30
0.0
 40
0.0306969
 41
0.0306969
  0
VERTEX
  8
0
 10
7.11908
 20
23.8596
 30
0.0
 40
0.0306969
 41
0.0306969
  0
VERTEX
  8
0
 10
7.18099
 20
23.631
 30
0.0
 40
0.0306969
 41
0.0306969
  0
VERTEX
  8
0
 10
7.27865
 20
23.4201
 30
0.0
 40
0.0306969
 41
0.0306969
  0
VERTEX
  8
0
 10
7.37185
 20
23.2746
 30
0.0
 40
0.0306969
 41
0.0306969
  0
VERTEX
  8
0
 10
7.40767
 20
23.2299
 30
0.0
 40
0.0306969
 41
0.0306969
  0
VERTEX
  8
0
 10
7.33751
 20
23.1936
 30
0.0
 40
0.0306969
 41
0.0306969
  0
VERTEX
  8
0
 10
7.1371
 20
23.0654
 30
0.0
 40
0.0306969
 41
0.0306969
  0
VERTEX
  8
0
 10
6.89176
 20
22.8656
 30
0.0
 40
0.0306969
 41
0.0306969
  0
VERTEX
  8
0
 10
6.67503
 20
22.634
 30
0.0
 40
0.0306969
 41
0.0306969
  0
VERTEX
  8
0
 10
6.49018
 20
22.374
 30
0.0
 40
0.0306969
 41
0.0306969
  0
VERTEX
  8
0
 10
6.3406
 20
22.0888
 30
0.0
 40
0.0306969
 41
0.0306969
  0
VERTEX
  8
0
 10
6.22965
 20
21.7818
 30
0.0
 40
0.0306969
 41
0.0306969
  0
VERTEX
  8
0
 10
6.1606
 20
21.4564
 30
0.0
 40
0.0306969
 41
0.0306969
  0
VERTEX
  8
0
 10
6.13688
 20
21.2011
 30
0.0
 40
0.0306969
 41
0.0306969
  0
VERTEX
  8
0
 10
6.13688
 20
21.116
 30
0.0
 40
0.0306969
 41
0.0306969
  0
VERTEX
  8
0
 10
6.13688
 20
4.44108
 30
0.0
 40
0.0306969
 41
0.0306969
  0
VERTEX
  8
0
 10
6.13688
 20
4.38075
 30
0.0
 40
0.0306969
 41
0.0306969
  0
VERTEX
  8
0
 10
6.14871
 20
4.1996
 30
0.0
 40
0.0306969
 41
0.0306969
  0
VERTEX
  8
0
 10
6.18354
 20
3.965
 30
0.0
 40
0.0306969
 41
0.0306969
  0
VERTEX
  8
0
 10
6.24013
 20
3.7385
 30
0.0
 40
0.0306969
 41
0.0306969
  0
VERTEX
  8
0
 10
6.31739
 20
3.52132
 30
0.0
 40
0.0306969
 41
0.0306969
  0
VERTEX
  8
0
 10
6.41407
 20
3.31461
 30
0.0
 40
0.0306969
 41
0.0306969
  0
VERTEX
  8
0
 10
6.52908
 20
3.11963
 30
0.0
 40
0.0306969
 41
0.0306969
  0
VERTEX
  8
0
 10
6.66118
 20
2.93756
 30
0.0
 40
0.0306969
 41
0.0306969
  0
VERTEX
  8
0
 10
6.80935
 20
2.76953
 30
0.0
 40
0.0306969
 41
0.0306969
  0
VERTEX
  8
0
 10
6.97228
 20
2.61681
 30
0.0
 40
0.0306969
 41
0.0306969
  0
VERTEX
  8
0
 10
7.14887
 20
2.48053
 30
0.0
 40
0.0306969
 41
0.0306969
  0
VERTEX
  8
0
 10
7.338
 20
2.36199
 30
0.0
 40
0.0306969
 41
0.0306969
  0
VERTEX
  8
0
 10
7.53842
 20
2.26232
 30
0.0
 40
0.0306969
 41
0.0306969
  0
VERTEX
  8
0
 10
7.74903
 20
2.18267
 30
0.0
 40
0.0306969
 41
0.0306969
  0
VERTEX
  8
0
 10
7.96864
 20
2.12429
 30
0.0
 40
0.0306969
 41
0.0306969
  0
VERTEX
  8
0
 10
8.19612
 20
2.08843
 30
0.0
 40
0.0306969
 41
0.0306969
  0
VERTEX
  8
0
 10
8.37175
 20
2.07617
 30
0.0
 40
0.0306969
 41
0.0306969
  0
VERTEX
  8
0
 10
8.43028
 20
2.07617
 30
0.0
 40
0.0306969
 41
0.0306969
  0
VERTEX
  8
0
 10
17.2842
 20
2.07617
 30
0.0
 40
0.0306969
 41
0.0306969
  0
VERTEX
  8
0
 10
17.3428
 20
2.07617
 30
0.0
 40
0.0306969
 41
0.0306969
  0
VERTEX
  8
0
 10
17.5183
 20
2.08843
 30
0.0
 40
0.0306969
 41
0.0306969
  0
VERTEX
  8
0
 10
17.7458
 20
2.12429
 30
0.0
 40
0.0306969
 41
0.0306969
  0
VERTEX
  8
0
 10
17.9656
 20
2.18267
 30
0.0
 40
0.0306969
 41
0.0306969
  0
VERTEX
  8
0
 10
18.1761
 20
2.26232
 30
0.0
 40
0.0306969
 41
0.0306969
  0
VERTEX
  8
0
 10
18.3767
 20
2.36199
 30
0.0
 40
0.0306969
 41
0.0306969
  0
VERTEX
  8
0
 10
18.5657
 20
2.48053
 30
0.0
 40
0.0306969
 41
0.0306969
  0
VERTEX
  8
0
 10
18.7424
 20
2.61681
 30
0.0
 40
0.0306969
 41
0.0306969
  0
VERTEX
  8
0
 10
18.9054
 20
2.76953
 30
0.0
 40
0.0306969
 41
0.0306969
  0
VERTEX
  8
0
 10
19.0535
 20
2.93756
 30
0.0
 40
0.0306969
 41
0.0306969
  0
VERTEX
  8
0
 10
19.1857
 20
3.11963
 30
0.0
 40
0.0306969
 41
0.0306969
  0
VERTEX
  8
0
 10
19.3007
 20
3.31461
 30
0.0
 40
0.0306969
 41
0.0306969
  0
VERTEX
  8
0
 10
19.3974
 20
3.52132
 30
0.0
 40
0.0306969
 41
0.0306969
  0
VERTEX
  8
0
 10
19.4746
 20
3.7385
 30
0.0
 40
0.0306969
 41
0.0306969
  0
VERTEX
  8
0
 10
19.5313
 20
3.965
 30
0.0
 40
0.0306969
 41
0.0306969
  0
VERTEX
  8
0
 10
19.566
 20
4.1996
 30
0.0
 40
0.0306969
 41
0.0306969
  0
VERTEX
  8
0
 10
19.5779
 20
4.38075
 30
0.0
 40
0.0306969
 41
0.0306969
  0
VERTEX
  8
0
 10
19.5779
 20
4.44108
 30
0.0
 40
0.0306969
 41
0.0306969
  0
VERTEX
  8
0
 10
19.5778
 20
21.1156
 30
0.0
 40
0.0306969
 41
0.0306969
  0
VERTEX
  8
0
 10
19.5778
 20
21.2008
 30
0.0
 40
0.0306969
 41
0.0306969
  0
VERTEX
  8
0
 10
19.5539
 20
21.4561
 30
0.0
 40
0.0306969
 41
0.0306969
  0
VERTEX
  8
0
 10
19.4847
 20
21.7815
 30
0.0
 40
0.0306969
 41
0.0306969
  0
VERTEX
  8
0
 10
19.3738
 20
22.0886
 30
0.0
 40
0.0306969
 41
0.0306969
  0
VERTEX
  8
0
 10
19.224
 20
22.3739
 30
0.0
 40
0.0306969
 41
0.0306969
  0
VERTEX
  8
0
 10
19.0392
 20
22.634
 30
0.0
 40
0.0306969
 41
0.0306969
  0
VERTEX
  8
0
 10
18.8222
 20
22.8656
 30
0.0
 40
0.0306969
 41
0.0306969
  0
VERTEX
  8
0
 10
18.5768
 20
23.0654
 30
0.0
 40
0.0306969
 41
0.0306969
  0
VERTEX
  8
0
 10
18.3762
 20
23.1936
 30
0.0
 40
0.0306969
 41
0.0306969
  0
VERTEX
  8
0
 10
18.3061
 20
23.2299
 30
0.0
 40
0.0306969
 41
0.0306969
  0
VERTEX
  8
0
 10
18.3063
 20
23.2299
 30
0.0
 40
0.0306969
 41
0.0306969
  0
SEQEND
 8
0
  0
ENDSEC
  0
EOF
